# xmcd CD database file
#
# Track frame offsets:
#	150
#	2360
#	16425
#	31282
#	44460
#	64367
#	77942
#	79645
#	93235
#	112450
#	128442
#	143322
#	158630
#	175552
#	190900
#	224900
#
# Disc length: 3225 seconds
#
# Revision: 0
# Processed by: cddbd v1.5PL3 Copyright (c) Steve Scherf et al.
# Submitted via: CDex 1.51
#
DISCID=cd0c9710
DTITLE=S.O.A.P. - NOT LIKE OTHER GIRLS
DYEAR=1900
DGENRE=New Age
TTITLE0=S.O.A.P.INTRO
TTITLE1=STAND BY YOU
TTITLE2=THIS IS HOW WE PARTY
TTITLE3=ROMEO and JULIET
TTITLE4=NOT LIKE OTHER GIRLS
TTITLE5=WHO CAN I TALK TO
TTITLE6=SIMON SAYS
TTITLE7=LADIDI LADIDIA
TTITLE8=WISHING
TTITLE9=DEEP IN MY HEART
TTITLE10=DOWUTCHALIKE
TTITLE11=LIVE FOREVER
TTITLE12=LADIDI LADIDIA-PART ?
TTITLE13=YOU'RE NOT ALONE
TTITLE14=THIS IS HOW WE PARTY (ALMIGHTY MIGHTY MIX)
TTITLE15=THIS IS HOW WE PARTY (GOTA MIX)
EXTD=
EXTT0=
EXTT1=
EXTT2=
EXTT3=
EXTT4=
EXTT5=
EXTT6=
EXTT7=
EXTT8=
EXTT9=
EXTT10=
EXTT11=
EXTT12=
EXTT13=
EXTT14=
EXTT15=
PLAYORDER=
